<svg id="Layer_1" data-name="Layer 1" xmlns="http://www.w3.org/2000/svg" viewBox="0 0 100.95 29.88"><defs><style>.cls-1{fill:#25a3c3;}.cls-2{fill:#70d340;}</style></defs><title>logo-nav</title><path class="cls-1" d="M19.89,21.26h-.06a5.35,5.35,0,0,1-2.08,2,6.5,6.5,0,0,1-3.31.83,6.91,6.91,0,0,1-2.76-.56A6.72,6.72,0,0,1,9.44,22,7.24,7.24,0,0,1,8,19.67a8.27,8.27,0,0,1,0-5.88,7.1,7.1,0,0,1,1.5-2.34A6.72,6.72,0,0,1,11.77,9.9a7.94,7.94,0,0,1,3-.55A6.25,6.25,0,0,1,17.6,10a6.91,6.91,0,0,1,2.23,1.77h.06V1.07h2.34V23.75H19.89Zm0-4.53a6,6,0,0,0-.35-2.06A4.74,4.74,0,0,0,17,11.92a5,5,0,0,0-2.05-.41,5,5,0,0,0-2.06.41,4.74,4.74,0,0,0-2.58,2.76,6.3,6.3,0,0,0,0,4.11,4.74,4.74,0,0,0,2.58,2.76,5,5,0,0,0,2.06.41A5,5,0,0,0,17,21.54a4.74,4.74,0,0,0,2.58-2.76A6,6,0,0,0,19.89,16.73Z" transform="translate(-7.41 -1.07)"/><path class="cls-1" d="M25.74,16.73a7.63,7.63,0,0,1,.57-3,7.1,7.1,0,0,1,1.56-2.33,6.94,6.94,0,0,1,2.37-1.51,8.6,8.6,0,0,1,6,0,6.94,6.94,0,0,1,2.37,1.51,7.1,7.1,0,0,1,1.56,2.33,7.64,7.64,0,0,1,.57,3,7.64,7.64,0,0,1-.57,3,7.09,7.09,0,0,1-1.56,2.32,6.93,6.93,0,0,1-2.37,1.52,8.6,8.6,0,0,1-6,0,6.93,6.93,0,0,1-2.37-1.52,7.09,7.09,0,0,1-1.56-2.32A7.64,7.64,0,0,1,25.74,16.73Zm2.52,0a6,6,0,0,0,.34,2.06,4.74,4.74,0,0,0,2.58,2.76,5.41,5.41,0,0,0,4.11,0,4.74,4.74,0,0,0,2.58-2.76,6.29,6.29,0,0,0,0-4.11,4.74,4.74,0,0,0-2.58-2.76,5.41,5.41,0,0,0-4.11,0,4.74,4.74,0,0,0-2.58,2.76A6,6,0,0,0,28.26,16.73Z" transform="translate(-7.41 -1.07)"/><path class="cls-1" d="M58.38,23.12a8,8,0,0,1-2,5.83,7.63,7.63,0,0,1-5.68,2,11,11,0,0,1-3.74-.6,8.83,8.83,0,0,1-3.16-2.07l1.68-1.92a8.14,8.14,0,0,0,2.35,1.81,7.2,7.2,0,0,0,5.46.15A4.11,4.11,0,0,0,55,27.07a4.82,4.82,0,0,0,.84-1.82A9.32,9.32,0,0,0,56,23.12v-1.8H56a5.09,5.09,0,0,1-2.19,2,6.46,6.46,0,0,1-2.76.63,8.24,8.24,0,0,1-3-.54,7,7,0,0,1-2.37-1.5,6.62,6.62,0,0,1-1.53-2.28,7.53,7.53,0,0,1-.54-2.88,8.41,8.41,0,0,1,.54-3.09,6.47,6.47,0,0,1,1.51-2.33A6.64,6.64,0,0,1,48,9.86,8.77,8.77,0,0,1,51,9.35a6.44,6.44,0,0,1,1.44.17,6,6,0,0,1,1.39.51,5,5,0,0,1,1.21.87,4.75,4.75,0,0,1,.9,1.21H56V9.71h2.34Zm-12.3-6.39a5,5,0,0,0,3,4.65,4.76,4.76,0,0,0,1.92.39,5.12,5.12,0,0,0,2.13-.42,4.71,4.71,0,0,0,2.55-2.74A5.65,5.65,0,0,0,56,16.67a5.83,5.83,0,0,0-.36-2.08,4.83,4.83,0,0,0-1-1.63,4.5,4.5,0,0,0-1.59-1.07,5.42,5.42,0,0,0-2-.37,4.94,4.94,0,0,0-2,.41A4.62,4.62,0,0,0,47.44,13a5.11,5.11,0,0,0-1,1.65A5.72,5.72,0,0,0,46.08,16.73Z" transform="translate(-7.41 -1.07)"/><path class="cls-1" d="M76.71,23.12a8,8,0,0,1-2,5.83,7.63,7.63,0,0,1-5.68,2,11,11,0,0,1-3.74-.6,8.84,8.84,0,0,1-3.17-2.07l1.68-1.92a8.14,8.14,0,0,0,2.35,1.81,7.2,7.2,0,0,0,5.46.15,4.11,4.11,0,0,0,1.63-1.26,4.82,4.82,0,0,0,.84-1.82,9.32,9.32,0,0,0,.24-2.13v-1.8h-.06a5.09,5.09,0,0,1-2.19,2,6.46,6.46,0,0,1-2.76.63,8.24,8.24,0,0,1-3-.54A7,7,0,0,1,64,21.89a6.62,6.62,0,0,1-1.53-2.28,7.53,7.53,0,0,1-.54-2.88,8.41,8.41,0,0,1,.54-3.09,6.46,6.46,0,0,1,1.51-2.33A6.64,6.64,0,0,1,66.3,9.86a8.77,8.77,0,0,1,3.06-.51,6.44,6.44,0,0,1,1.44.17,6,6,0,0,1,1.39.51,5,5,0,0,1,1.21.87,4.75,4.75,0,0,1,.9,1.21h.06V9.71h2.34Zm-12.3-6.39a5,5,0,0,0,3,4.65,4.76,4.76,0,0,0,1.92.39,5.12,5.12,0,0,0,2.13-.42A4.71,4.71,0,0,0,74,18.61a5.65,5.65,0,0,0,.33-1.94A5.83,5.83,0,0,0,74,14.58,4.83,4.83,0,0,0,73,13a4.5,4.5,0,0,0-1.59-1.07,5.42,5.42,0,0,0-2-.37,4.94,4.94,0,0,0-2,.41A4.62,4.62,0,0,0,65.77,13a5.11,5.11,0,0,0-1,1.65A5.72,5.72,0,0,0,64.41,16.73Z" transform="translate(-7.41 -1.07)"/><path class="cls-2" d="M80.22,16.73a7.62,7.62,0,0,1,.57-3,7.08,7.08,0,0,1,1.56-2.33,6.94,6.94,0,0,1,2.37-1.51,8.6,8.6,0,0,1,6,0,6.94,6.94,0,0,1,2.37,1.51,7.1,7.1,0,0,1,1.56,2.33,7.64,7.64,0,0,1,.57,3,7.64,7.64,0,0,1-.57,3,7.09,7.09,0,0,1-1.56,2.32,6.94,6.94,0,0,1-2.37,1.52,8.6,8.6,0,0,1-6,0,6.94,6.94,0,0,1-2.37-1.52,7.07,7.07,0,0,1-1.56-2.32A7.63,7.63,0,0,1,80.22,16.73Zm2.52,0a5.94,5.94,0,0,0,.35,2.06,4.74,4.74,0,0,0,2.58,2.76,5.41,5.41,0,0,0,4.11,0,4.74,4.74,0,0,0,2.58-2.76,6.3,6.3,0,0,0,0-4.11,4.74,4.74,0,0,0-2.58-2.76,5.41,5.41,0,0,0-4.11,0,4.74,4.74,0,0,0-2.58,2.76A5.94,5.94,0,0,0,82.74,16.73Z" transform="translate(-7.41 -1.07)"/><path class="cls-1" d="M99.15,20.06a5.89,5.89,0,0,0,1.52,1.38,3.91,3.91,0,0,0,2.08.51,5.16,5.16,0,0,0,1.09-.12,3.29,3.29,0,0,0,1-.39,2.24,2.24,0,0,0,.72-.68,1.72,1.72,0,0,0,.27-1,1.57,1.57,0,0,0-.25-.93,2.23,2.23,0,0,0-.67-.62,3.84,3.84,0,0,0-1-.41q-.54-.15-1.11-.27-1-.21-1.89-.48a6.13,6.13,0,0,1-1.58-.71,3.31,3.31,0,0,1-1.08-1.12,3.45,3.45,0,0,1-.41-1.77,3.54,3.54,0,0,1,.45-1.8,3.9,3.9,0,0,1,1.2-1.29,5.87,5.87,0,0,1,1.68-.78,6.84,6.84,0,0,1,1.92-.27,6.44,6.44,0,0,1,2.78.6,4.33,4.33,0,0,1,2,1.95l-2,1.29A3.63,3.63,0,0,0,104.77,12a3.27,3.27,0,0,0-1.78-.47,4.15,4.15,0,0,0-1,.12,3,3,0,0,0-.88.36,2.09,2.09,0,0,0-.64.61,1.48,1.48,0,0,0-.26.85,1.1,1.1,0,0,0,.29.77,2.52,2.52,0,0,0,.78.55,6.78,6.78,0,0,0,1.14.42,13.66,13.66,0,0,0,1.33.3,13.6,13.6,0,0,1,1.77.46,5.13,5.13,0,0,1,1.47.77,3.4,3.4,0,0,1,1,1.2,3.93,3.93,0,0,1,.36,1.77,4.06,4.06,0,0,1-.48,2,4,4,0,0,1-1.28,1.37,5.6,5.6,0,0,1-1.8.76,8.8,8.8,0,0,1-2.05.24,7.9,7.9,0,0,1-3.11-.56,5.62,5.62,0,0,1-2.35-2.05Z" transform="translate(-7.41 -1.07)"/></svg>